# xmcd
#
# Track frame offsets: 
#        150
#        12303
#        25997
#        37069
#        49342
#        63055
#        73100
#        87436
#        101179
#        116970
#        132926
#        145180
#        162330
#        174369
#        188417
#        201712
#        213673
#        226923
#        239570
#        253571
#
# Disc length: 3546 seconds
#
# Revision: 1
# Processed by: cddbd v1.5.2PL0 Copyright (c) Steve Scherf et al.
# Submitted via: ExactAudioCopyFreeDBPlugin 1.0
#
DISCID=2d0dd814
DTITLE=Various Artist - Cooler Than Ice:  Arctic Records and the Rise
DTITLE=of Philly Soul [box set]
DYEAR=2012
DGENRE=Soul
TTITLE0=Della Humphrey - Don't Make the Good Girls Go Bad
TTITLE1=Della Humphrey - Your Love is All I Need
TTITLE2=Billy Floyd - My Oh My
TTITLE3=Billy Floyd - Time Made You Change (Your Mind)
TTITLE4=Barbara Mason - I'm No Good for You
TTITLE5=Barbara Mason - Don't Ever Go Away
TTITLE6=The Ambassadors - I Really Love You
TTITLE7=The Ambassadors - I Can't Believe You Love Me
TTITLE8=Barbara Mason - Take it Easy (With My Heart)
TTITLE9=Barbara Mason - You Never Loved Me (At All)
TTITLE10=Honey and The Bees - Love Addict
TTITLE11=Honey and The Bees - I'll Be There
TTITLE12=The Ambassadors - Ain't Got the Love of One Girl (On My Mind)
TTITLE13=The Ambassadors - Music (Makes You Wanna Dance)
TTITLE14=Winfield Parker - Shake That Thing
TTITLE15=Winfield Parker - Brand New Start
TTITLE16=Honey and The Bees - Together Forever
TTITLE17=Honey and The Bees - Dynamite Exploded
TTITLE18=The Ambassadors - I Dig You Baby
TTITLE19=The Ambassadors - Storm Warning
EXTD=
EXTT0=
EXTT1=
EXTT2=
EXTT3=
EXTT4=
EXTT5=
EXTT6=
EXTT7=
EXTT8=
EXTT9=
EXTT10=
EXTT11=
EXTT12=
EXTT13=
EXTT14=
EXTT15=
EXTT16=
EXTT17=
EXTT18=
EXTT19=
PLAYORDER=
